<?xml version="1.0" encoding="utf-8"?>
<svg viewBox="0 0 128 128" width="128" height="128" xmlns="http://www.w3.org/2000/svg">
  <path d="M 108 36 L 20 36 L 20 124 L 108 124 L 108 36 Z M 64 0 C 81.673 0 96 14.327 96 32 L 110 32 C 111.105 32 112 32.895 112 34 L 112 126 C 112 127.105 111.105 128 110 128 L 18 128 C 16.895 128 16 127.105 16 126 L 16 34 C 16 32.895 16.895 32 18 32 L 32 32 C 32 14.327 46.327 0 64 0 Z M 64 4 C 48.536 4 36 16.536 36 32 L 44 32 C 44 20.954 52.954 12 64 12 C 75.046 12 84 20.954 84 32 L 92 32 C 92 16.536 79.464 4 64 4 Z M 64 16 C 55.163 16 48 23.163 48 32 L 80 32 C 80 23.163 72.837 16 64 16 Z" style="fill: rgb(0, 98, 184);"/>
  <path d="M 80 64 C 80 70.115 76.571 75.428 71.53 78.121 L 80 112 L 48 112 L 56.47 78.121 C 51.429 75.428 48 70.115 48 64 C 48 55.163 55.163 48 64 48 C 72.837 48 80 55.163 80 64 Z" style="fill: rgb(0, 98, 184);"/>
</svg>