<?xml version="1.0" encoding="utf-8"?>
<svg viewBox="0 0 128 128" width="128" height="128" xmlns="http://www.w3.org/2000/svg">
  <path d="M 26 88 C 12.745 88 2 77.255 2 64 C 2 50.745 12.745 40 26 40 C 34.884 40 42.64 44.826 46.789 52 L 113 52 L 126 64 L 113 76 L 106 70 L 100 76 L 94 70 L 83.8 80 L 78 74 L 72 80 L 62 70 L 56 76 L 50 70 L 49.244 70 C 46.58 80.351 37.183 88 26 88 Z M 16 56 C 11.582 56 8 59.581 8 64 C 8 68.418 11.582 72 16 72 C 20.418 72 24 68.418 24 64 C 24 59.581 20.418 56 16 56 Z" style="stroke-width: 4px; stroke: rgb(0, 98, 184); fill: none; stroke-linejoin: round;"/>
</svg>