<?xml version="1.0" encoding="utf-8"?>
<svg viewBox="0 0 128 128" width="128" height="128" xmlns="http://www.w3.org/2000/svg" xmlns:bx="https://boxy-svg.com">
  <path style="stroke: rgb(0, 98, 184); stroke-linejoin: round; stroke-width: 18.4921px; fill: none;" transform="matrix(0.216308, 0, 0, 0.216308, -13.149928, -22.955819)" d="M 321.6 115.372 L 391.734 115.372 L 412.492 201.041 A 208.569 208.569 0 0 1 459.292 220.426 L 534.548 174.528 L 584.139 224.119 L 538.241 299.375 A 208.569 208.569 0 0 1 557.626 346.175 L 643.295 366.933 L 643.295 437.067 L 557.626 457.825 A 208.569 208.569 0 0 1 538.241 504.625 L 584.139 579.881 L 534.548 629.472 L 459.292 583.574 A 208.569 208.569 0 0 1 412.492 602.959 L 391.734 688.628 L 321.6 688.628 L 300.842 602.959 A 208.569 208.569 0 0 1 254.042 583.574 L 178.786 629.472 L 129.195 579.881 L 175.093 504.625 A 208.569 208.569 0 0 1 155.708 457.825 L 70.039 437.067 L 70.039 366.933 L 155.708 346.175 A 208.569 208.569 0 0 1 175.093 299.375 L 129.195 224.119 L 178.786 174.528 L 254.042 220.426 A 208.569 208.569 0 0 1 300.842 201.041 Z M 356.667 305.327 A 96.673 96.673 0 0 0 356.667 498.673 A 96.673 96.673 0 0 0 356.667 305.327" bx:shape="cog 356.667 402 96.673 208.569 286.628 0.38 8 1@56c03f7b"/>
</svg>