<?xml version="1.0" encoding="utf-8"?>
<svg viewBox="0 0 128 128" width="128" height="128" xmlns="http://www.w3.org/2000/svg">
  <rect x="2" y="2" width="124" height="124" style="stroke: rgb(0, 98, 184); fill: none; stroke-linejoin: round; stroke-width: 4px;"/>
  <line style="stroke-width: 4px; stroke: rgb(0, 98, 184);" x1="2" y1="24" x2="126" y2="24"/>
  <path d="M 51.056 77.828 C 51.056 72.848 51.769 68.815 53.196 65.728 C 54.616 62.648 56.713 60.375 59.486 58.908 C 62.266 57.441 65.689 56.708 69.756 56.708 C 71.203 56.708 72.896 56.848 74.836 57.128 L 74.836 64.668 C 73.209 64.361 71.443 64.208 69.536 64.208 C 66.316 64.208 63.916 64.915 62.336 66.328 C 60.756 67.748 59.893 70.061 59.746 73.268 L 60.036 73.268 C 61.503 70.501 63.856 69.118 67.096 69.118 C 70.269 69.118 72.729 70.138 74.476 72.178 C 76.229 74.218 77.106 77.061 77.106 80.708 C 77.106 84.635 75.999 87.731 73.786 89.998 C 71.573 92.271 68.479 93.408 64.506 93.408 C 60.293 93.408 56.996 92.041 54.616 89.308 C 52.243 86.575 51.056 82.748 51.056 77.828 Z M 64.286 85.768 C 65.313 85.768 66.146 85.381 66.786 84.608 C 67.433 83.835 67.756 82.601 67.756 80.908 C 67.756 78.008 66.633 76.558 64.386 76.558 C 63.279 76.558 62.379 76.935 61.686 77.688 C 60.993 78.435 60.646 79.345 60.646 80.418 C 60.646 81.978 60.979 83.261 61.646 84.268 C 62.319 85.268 63.199 85.768 64.286 85.768 Z" style="fill: rgb(0, 98, 184); white-space: pre;"/>
  <path d="M 49.76 102.885 L 49.76 117.165 L 45.84 117.165 L 45.84 109.605 C 45.84 108.685 45.86 107.845 45.9 107.085 C 45.66 107.378 45.36 107.685 45 108.005 L 43.38 109.345 L 41.38 106.885 L 46.28 102.885 L 49.76 102.885 ZM 58.179 102.685 C 59.679 102.685 60.849 102.988 61.689 103.595 C 62.522 104.195 62.939 105.052 62.939 106.165 C 62.939 106.925 62.742 107.588 62.349 108.155 C 61.955 108.728 61.332 109.225 60.479 109.645 C 61.539 110.245 62.282 110.842 62.709 111.435 C 63.142 112.035 63.359 112.678 63.359 113.365 C 63.359 114.638 62.902 115.622 61.989 116.315 C 61.069 117.015 59.785 117.365 58.139 117.365 C 56.459 117.365 55.172 117.022 54.279 116.335 C 53.385 115.655 52.939 114.678 52.939 113.405 C 52.939 112.578 53.139 111.875 53.539 111.295 C 53.939 110.708 54.605 110.178 55.539 109.705 C 54.785 109.198 54.235 108.652 53.889 108.065 C 53.535 107.485 53.359 106.845 53.359 106.145 C 53.359 105.052 53.785 104.202 54.639 103.595 C 55.492 102.988 56.672 102.685 58.179 102.685 Z M 56.479 113.245 C 56.479 113.652 56.622 113.978 56.909 114.225 C 57.195 114.465 57.592 114.585 58.099 114.585 C 59.245 114.585 59.819 114.165 59.819 113.325 C 59.819 113.005 59.692 112.692 59.439 112.385 C 59.192 112.078 58.745 111.732 58.099 111.345 C 57.519 111.652 57.105 111.958 56.859 112.265 C 56.605 112.578 56.479 112.905 56.479 113.245 Z M 58.159 105.465 C 57.825 105.465 57.545 105.562 57.319 105.755 C 57.092 105.948 56.979 106.198 56.979 106.505 C 56.979 107.065 57.359 107.558 58.119 107.985 C 58.579 107.718 58.895 107.475 59.069 107.255 C 59.235 107.035 59.319 106.785 59.319 106.505 C 59.319 106.192 59.205 105.938 58.979 105.745 C 58.752 105.558 58.479 105.465 58.159 105.465 ZM 74.477 105.985 C 74.477 106.872 74.207 107.632 73.667 108.265 C 73.127 108.898 72.344 109.358 71.317 109.645 L 71.317 109.705 C 73.704 110.005 74.897 111.132 74.897 113.085 C 74.897 114.412 74.371 115.455 73.317 116.215 C 72.264 116.982 70.804 117.365 68.937 117.365 C 68.171 117.365 67.461 117.308 66.807 117.195 C 66.154 117.082 65.444 116.878 64.677 116.585 L 64.677 113.385 C 65.304 113.705 65.941 113.942 66.587 114.095 C 67.234 114.248 67.831 114.325 68.377 114.325 C 69.224 114.325 69.844 114.205 70.237 113.965 C 70.624 113.732 70.817 113.358 70.817 112.845 C 70.817 112.458 70.714 112.158 70.507 111.945 C 70.307 111.732 69.984 111.572 69.537 111.465 C 69.084 111.358 68.497 111.305 67.777 111.305 L 66.897 111.305 L 66.897 108.405 L 67.797 108.405 C 69.757 108.405 70.737 107.905 70.737 106.905 C 70.737 106.525 70.591 106.245 70.297 106.065 C 70.011 105.878 69.624 105.785 69.137 105.785 C 68.224 105.785 67.277 106.092 66.297 106.705 L 64.697 104.125 C 65.457 103.605 66.231 103.235 67.017 103.015 C 67.811 102.795 68.717 102.685 69.737 102.685 C 71.217 102.685 72.377 102.978 73.217 103.565 C 74.057 104.152 74.477 104.958 74.477 105.985 ZM 86.736 110.045 C 86.736 112.572 86.313 114.422 85.466 115.595 C 84.619 116.775 83.323 117.365 81.576 117.365 C 79.869 117.365 78.583 116.748 77.716 115.515 C 76.849 114.288 76.416 112.465 76.416 110.045 C 76.416 107.505 76.839 105.642 77.686 104.455 C 78.533 103.275 79.829 102.685 81.576 102.685 C 83.276 102.685 84.559 103.302 85.426 104.535 C 86.299 105.768 86.736 107.605 86.736 110.045 Z M 80.256 110.045 C 80.256 111.658 80.356 112.768 80.556 113.375 C 80.763 113.982 81.103 114.285 81.576 114.285 C 82.056 114.285 82.396 113.972 82.596 113.345 C 82.796 112.718 82.896 111.618 82.896 110.045 C 82.896 108.465 82.796 107.358 82.596 106.725 C 82.389 106.085 82.049 105.765 81.576 105.765 C 81.103 105.765 80.763 106.072 80.556 106.685 C 80.356 107.298 80.256 108.418 80.256 110.045 Z" style="fill: rgb(0, 98, 184); white-space: pre;"/>
  <path d="M 48.95 47.269 L 44.73 47.269 L 44.03 44.589 L 39.39 44.589 L 38.67 47.269 L 34.43 47.269 L 39.09 32.929 L 44.23 32.929 L 48.95 47.269 Z M 40.19 41.429 L 43.23 41.429 L 42.61 39.089 C 42.47 38.569 42.297 37.892 42.09 37.059 C 41.883 36.232 41.75 35.642 41.69 35.289 C 41.63 35.622 41.513 36.169 41.34 36.929 C 41.167 37.689 40.783 39.189 40.19 41.429 ZM 60.851 37.529 C 60.851 39.129 60.381 40.362 59.441 41.229 C 58.501 42.096 57.165 42.529 55.431 42.529 L 54.351 42.529 L 54.351 47.269 L 50.491 47.269 L 50.491 32.989 L 55.431 32.989 C 57.238 32.989 58.595 33.382 59.501 34.169 C 60.401 34.962 60.851 36.082 60.851 37.529 Z M 54.351 36.109 L 54.351 39.389 L 55.051 39.389 C 55.631 39.389 56.095 39.226 56.441 38.899 C 56.781 38.572 56.951 38.122 56.951 37.549 C 56.951 36.589 56.418 36.109 55.351 36.109 L 54.351 36.109 ZM 67.968 42.069 L 66.988 42.069 L 66.988 47.269 L 63.128 47.269 L 63.128 32.989 L 67.808 32.989 C 71.688 32.989 73.628 34.396 73.628 37.209 C 73.628 38.862 72.821 40.142 71.208 41.049 L 75.368 47.269 L 70.988 47.269 L 67.968 42.069 Z M 66.988 35.909 L 66.988 39.169 L 67.708 39.169 C 69.055 39.169 69.728 38.576 69.728 37.389 C 69.728 36.402 69.068 35.909 67.748 35.909 L 66.988 35.909 ZM 80.543 47.269 L 76.663 47.269 L 76.663 32.989 L 80.543 32.989 L 80.543 47.269 ZM 92.986 47.269 L 83.626 47.269 L 83.626 32.989 L 87.486 32.989 L 87.486 44.149 L 92.986 44.149 L 92.986 47.269 Z" style="fill: rgb(0, 98, 184); white-space: pre;"/>
  <path style="stroke: rgb(0, 98, 184); stroke-linejoin: round; stroke-width: 4px; fill: none;" d="M 126 81 C 125.948 92.331 125.167 102.399 119 116.5 C 98.087 123.949 87.489 125.35 64 126"/>
</svg>