<?xml version="1.0" encoding="utf-8"?>
<svg viewBox="0 0 128 128" width="128" height="128" xmlns="http://www.w3.org/2000/svg" xmlns:bx="https://boxy-svg.com">
  <path d="M 2 2 L 43.3 18 L 84.7 2 L 126 18 L 126 126 L 84.7 110 L 43.3 126 L 2 110 L 2 2 Z" style="stroke: rgb(0, 98, 184); stroke-linejoin: round; stroke-width: 4px; fill: none;"/>
  <path d="M 82.454 71.291 L 97.433 71.291 L 100.278 78.768 L 97.56 78.768 L 103.526 84.496 L 105.132 78.768 L 102.418 78.768 L 99.573 71.291 L 114.552 71.291 L 117.398 78.768 L 114.398 78.768 L 110.677 92.036 L 112.92 97.928 L 116.129 97.928 L 118.975 105.405 L 103.995 105.405 L 101.15 97.928 L 104.36 97.928 L 102.121 92.044 L 88.294 78.768 L 85.299 78.768 Z" style="fill: rgb(0, 98, 184);" transform="matrix(0.93461, 0.355673, -0.355673, 0.93461, 38.008695, -30.044408)"/>
  <path d="M 109.13 58.972 L 119.829 68.318 L 98.43 68.318 L 109.13 58.972 Z" style="fill: rgb(0, 98, 184);" transform="matrix(0.93461, 0.355673, 0, 1.069965, 3, -45.814584)" bx:shape="triangle 98.43 58.972 21.399 9.346 0.5 0 1@a79af114"/>
  <path style="fill: none; stroke: rgb(0, 98, 184); stroke-width: 4px; stroke-linecap: round; stroke-linejoin: round;" d="M 43.361 110.283 C 43.361 75.64 22.139 69.164 22.139 51.921 C 22.139 39.983 30.097 29.372 43.361 29.372 C 56.625 29.372 64.584 39.983 64.584 51.921 C 64.584 69.164 43.361 75.691 43.361 110.283 Z M 43.361 41.31 C 37.501 41.31 32.75 46.061 32.75 51.921 C 32.75 57.781 37.501 62.532 43.361 62.532 C 49.221 62.532 53.973 57.781 53.973 51.921 C 53.973 46.061 49.221 41.31 43.361 41.31 Z"/>
</svg>