<?xml version="1.0" encoding="utf-8"?>
<svg viewBox="0 0 128 128" width="128px" height="128px" xmlns="http://www.w3.org/2000/svg">
  <path d="M 64 22.344 C 53.896 22.344 45.511 14.977 43.927 5.322 C 50.222 3.168 56.975 2 64 2 C 71.025 2 77.778 3.168 84.073 5.322 C 82.489 14.977 74.104 22.344 64 22.344 Z" style="stroke: rgb(0, 98, 184); fill: none; stroke-width: 4px; stroke-linejoin: round;"/>
  <path d="M 105.656 64 C 105.656 53.896 113.023 45.511 122.678 43.927 C 124.832 50.222 126 56.975 126 64 C 126 71.025 124.832 77.778 122.678 84.073 C 113.023 82.489 105.656 74.104 105.656 64 Z" style="stroke: rgb(0, 98, 184); fill: none; stroke-width: 4px; stroke-linejoin: round;"/>
  <path d="M 64 105.656 C 74.104 105.656 82.489 113.023 84.073 122.678 C 77.778 124.832 71.025 126 64 126 C 56.975 126 50.222 124.832 43.927 122.678 C 45.511 113.023 53.896 105.656 64 105.656 Z" style="stroke: rgb(0, 98, 184); fill: none; stroke-width: 4px; stroke-linejoin: round;"/>
  <path d="M 22.344 64 C 22.344 74.104 14.977 82.489 5.322 84.073 C 3.168 77.778 2 71.025 2 64 C 2 56.975 3.168 50.222 5.322 43.927 C 14.977 45.511 22.344 53.896 22.344 64 Z" style="stroke: rgb(0, 98, 184); fill: none; stroke-width: 4px; stroke-linejoin: round;"/>
  <path d="M 34.501 34.501 C 27.371 41.631 16.266 42.362 8.321 36.695 C 14.37 24.383 24.383 14.37 36.695 8.321 C 42.362 16.266 41.631 27.371 34.501 34.501 Z" style="stroke: rgb(0, 98, 184); fill: none; stroke-width: 4px; stroke-linejoin: round;"/>
  <path d="M 93.499 34.501 C 86.369 27.371 85.638 16.266 91.305 8.321 C 103.617 14.37 113.63 24.383 119.679 36.695 C 111.734 42.362 100.629 41.631 93.499 34.501 Z" style="stroke: rgb(0, 98, 184); fill: none; stroke-width: 4px; stroke-linejoin: round;"/>
  <path d="M 93.499 93.499 C 100.629 86.369 111.734 85.638 119.679 91.305 C 113.63 103.617 103.617 113.63 91.305 119.679 C 85.638 111.734 86.369 100.629 93.499 93.499 Z" style="stroke: rgb(0, 98, 184); fill: none; stroke-width: 4px; stroke-linejoin: round;"/>
  <path d="M 34.501 93.499 C 41.631 100.629 42.362 111.734 36.695 119.679 C 24.383 113.63 14.37 103.617 8.321 91.305 C 16.266 85.638 27.371 86.369 34.501 93.499 Z" style="stroke: rgb(0, 98, 184); fill: none; stroke-width: 4px; stroke-linejoin: round;"/>
  <circle style="stroke: rgb(0, 98, 184); fill: none; stroke-width: 4px; stroke-linejoin: round;" cx="33.969" r="5.813" cy="64"/>
  <circle style="stroke: rgb(0, 98, 184); fill: none; stroke-width: 4px; stroke-linejoin: round;" cx="94.031" r="5.813" cy="64"/>
  <circle style="stroke: rgb(0, 98, 184); fill: none; stroke-width: 4px; stroke-linejoin: round;" cx="64" r="5.813" cy="33.969"/>
  <circle style="stroke: rgb(0, 98, 184); fill: none; stroke-width: 4px; stroke-linejoin: round;" cx="42.784" r="5.813" cy="42.784"/>
  <circle style="stroke: rgb(0, 98, 184); fill: none; stroke-width: 4px; stroke-linejoin: round;" cx="85.216" r="5.813" cy="42.784"/>
  <circle style="stroke: rgb(0, 98, 184); fill: none; stroke-width: 4px; stroke-linejoin: round;" cx="85.216" r="5.813" cy="85.216"/>
  <circle style="stroke: rgb(0, 98, 184); fill: none; stroke-width: 4px; stroke-linejoin: round;" cx="64" r="5.813" cy="94.031"/>
  <circle style="stroke: rgb(0, 98, 184); fill: none; stroke-width: 4px; stroke-linejoin: round;" cx="42.784" r="5.813" cy="85.216"/>
</svg>