<?xml version="1.0" encoding="utf-8"?>
<svg viewBox="0 0 128 128" width="128" height="128" xmlns="http://www.w3.org/2000/svg">
  <path d="M 46.74 43 L 62.85 43 L 62.85 52.206 L 59.924 52.206 L 63.997 59.259 L 68.068 52.206 L 65.15 52.206 L 65.15 43 L 81.26 43 L 81.26 52.206 L 78.032 52.206 L 68.603 68.542 L 68.603 75.796 L 72.053 75.796 L 72.053 85 L 55.944 85 L 55.944 75.796 L 59.397 75.796 L 59.397 68.55 L 49.959 52.206 L 46.74 52.206 Z" style="fill: rgb(0, 98, 184);"/>
  <path d="M 2 35.981 L 126 35.981 C 127.105 35.981 128 36.876 128 37.981 L 128 90.019 C 128 91.124 127.105 92.019 126 92.019 L 2 92.019 C 0.895 92.019 0 91.124 0 90.019 L 0 37.981 C 0 36.876 0.895 35.981 2 35.981 Z M 4 74.124 C 11.238 75.026 16.974 80.763 17.876 88 L 110.123 88 C 111.026 80.762 116.763 75.026 124 74.124 L 124 53.876 C 116.762 52.974 111.026 47.237 110.124 40 L 17.876 40 C 16.974 47.238 11.238 52.974 4 53.876 Z" style="fill: rgb(0, 98, 184);"/>
  <circle style="fill: rgb(0, 98, 184);" cx="28" cy="64" r="6"/>
  <circle style="fill: rgb(0, 98, 184);" cx="31.844" cy="64.056" r="6" transform="matrix(1, 0, 0, 1, 68.155787, -0.056367)"/>
</svg>