<?xml version="1.0" encoding="utf-8"?>
<svg viewBox="0 0 128 128" width="128" height="128" xmlns="http://www.w3.org/2000/svg">
  <path d="M 26 2 C 34.837 2 42 9.163 42 18 L 42 34 C 42 41.456 36.901 47.72 30 49.496 L 30 122 C 30 124.209 28.209 126 26 126 C 23.791 126 22 124.209 22 122 L 22 49.496 C 15.099 47.72 10 41.456 10 34 L 10 18 C 10 9.163 17.163 2 26 2 Z" style="fill: none; stroke: rgb(0, 98, 184); stroke-linejoin: round; stroke-width: 4px;"/>
  <rect style="stroke: rgb(0, 98, 184); stroke-width: 4px; stroke-linejoin: round; fill: none;" x="18" y="10" width="16" height="32" rx="8" ry="8"/>
  <path d="M 87.967 34 L 88 6 C 88 3.791 89.791 2 92 2 C 94.209 2 96 3.791 96 6 L 95.967 34 L 96.083 34 L 96.116 6 C 96.116 3.791 97.854 2 100 2 C 102.144 2 103.883 3.791 103.883 6 L 103.851 34 L 104.083 34 L 104.115 6 C 104.115 3.791 105.854 2 108 2 C 110.143 2 111.883 3.791 111.883 6 L 111.85 34 L 111.967 34 L 112 6 C 112 3.791 113.791 2 116 2 C 118.209 2 120 3.791 120 6 L 119.967 34 L 119.983 34 C 119.983 41.456 114.884 47.72 107.983 49.496 L 107.983 122 C 107.983 124.209 106.192 126 103.983 126 C 101.774 126 99.983 124.209 99.983 122 L 99.983 49.496 C 93.082 47.72 87.983 41.456 87.983 34 Z" style="fill: none; stroke: rgb(0, 98, 184); stroke-linejoin: round; stroke-width: 4px;"/>
  <path style="stroke: rgb(0, 98, 184); stroke-linejoin: round; stroke-width: 4px; fill: none;" d="M 56 82 L 56 18 C 56 9.163 63.163 2 72 2 L 72 122 C 72 124.209 70.209 126 68 126 C 65.791 126 64 124.209 64 122 L 64 82 Z"/>
</svg>