<?xml version="1.0" encoding="utf-8"?>
<svg viewBox="0 0 128 128" width="128" height="128" xmlns="http://www.w3.org/2000/svg">
  <path d="M 18 2 C 26.837 2 34 9.163 34 18 L 34 34 C 34 41.456 28.901 47.72 22 49.496 L 22 122 C 22 124.209 20.209 126 18 126 C 15.791 126 14 124.209 14 122 L 14 49.496 C 7.099 47.72 2 41.456 2 34 L 2 18 C 2 9.163 9.163 2 18 2 Z" style="fill: none; stroke: rgb(0, 98, 184); stroke-linejoin: round; stroke-width: 4px;"/>
  <rect style="stroke: rgb(0, 98, 184); stroke-width: 4px; stroke-linejoin: round; fill: none;" x="10" y="10" width="16" height="32" rx="8" ry="8"/>
  <path d="M 41.984 34 L 42.017 6 C 42.017 3.791 43.808 2 46.017 2 C 48.226 2 50.017 3.791 50.017 6 L 49.984 34 L 50.1 34 L 50.133 6 C 50.133 3.791 51.871 2 54.017 2 C 56.161 2 57.9 3.791 57.9 6 L 57.868 34 L 58.1 34 L 58.132 6 C 58.132 3.791 59.871 2 62.017 2 C 64.16 2 65.9 3.791 65.9 6 L 65.867 34 L 65.984 34 L 66.017 6 C 66.017 3.791 67.808 2 70.017 2 C 72.226 2 74.017 3.791 74.017 6 L 73.984 34 L 74 34 C 74 41.456 68.901 47.72 62 49.496 L 62 122 C 62 124.209 60.209 126 58 126 C 55.791 126 54 124.209 54 122 L 54 49.496 C 47.099 47.72 42 41.456 42 34 Z" style="fill: none; stroke: rgb(0, 98, 184); stroke-linejoin: round; stroke-width: 4px;"/>
  <path d="M 106.769 126.011 L 99.216 126.011 L 99.216 116.584 C 95.116 116.178 91.458 115.098 88.236 113.347 C 85.016 111.593 82.491 109.115 80.661 105.914 C 78.832 102.704 77.949 98.726 78.009 93.972 L 78.106 93.735 L 94.196 93.735 C 94.196 96.271 94.572 98.327 95.323 99.905 C 96.071 101.483 97.1 102.64 98.415 103.377 C 99.728 104.111 101.245 104.479 102.968 104.479 C 104.374 104.479 105.546 104.189 106.484 103.609 C 107.426 103.032 108.129 102.227 108.599 101.192 C 109.068 100.16 109.303 98.973 109.303 97.628 C 109.303 96.036 109.058 94.692 108.571 93.596 C 108.09 92.502 107.294 91.523 106.184 90.665 C 105.07 89.801 103.545 88.95 101.61 88.104 C 96.727 86.167 92.715 84.231 89.572 82.29 C 86.431 80.351 84.11 78.082 82.611 75.488 C 81.107 72.894 80.355 69.641 80.355 65.729 C 80.355 60.414 82.152 56.043 85.75 52.617 C 89.348 49.195 94.148 47.2 100.155 46.637 L 100.155 36.738 L 107.659 36.738 L 107.659 46.866 C 113.291 47.712 117.756 50.029 121.056 53.816 C 124.356 57.599 125.956 62.429 125.86 68.31 L 126.006 68.687 L 109.721 68.687 C 109.721 65.339 109.088 62.861 107.821 61.251 C 106.557 59.643 104.91 58.836 102.878 58.836 C 100.779 58.836 99.229 59.492 98.226 60.806 C 97.229 62.119 96.729 63.821 96.729 65.915 C 96.729 67.294 96.958 68.491 97.411 69.507 C 97.862 70.523 98.652 71.455 99.78 72.3 C 100.901 73.145 102.45 74.002 104.421 74.875 C 109.241 76.973 113.229 79.022 116.383 81.023 C 119.543 83.023 121.899 85.314 123.443 87.896 C 124.993 90.475 125.768 93.688 125.768 97.538 C 125.768 102.949 124.05 107.314 120.61 110.626 C 117.166 113.94 112.551 115.894 106.769 116.487 L 106.769 126.011 Z" style="white-space: pre; fill: none; stroke: rgb(0, 98, 184); stroke-linejoin: round; stroke-width: 4px;"/>
</svg>