<?xml version="1.0" encoding="utf-8"?>
<svg viewBox="0 0 128 128" width="128" height="128" xmlns="http://www.w3.org/2000/svg">
  <path d="M 70.617 126 L 60.124 126 L 60.124 112.906 C 54.432 112.339 49.349 110.841 44.874 108.41 C 40.4 105.973 36.894 102.531 34.354 98.082 C 31.812 93.627 30.584 88.1 30.669 81.498 L 30.804 81.169 L 53.152 81.169 C 53.152 84.689 53.674 87.545 54.718 89.737 C 55.756 91.93 57.187 93.538 59.012 94.562 C 60.836 95.581 62.944 96.09 65.336 96.09 C 67.289 96.09 68.917 95.687 70.22 94.882 C 71.528 94.082 72.508 92.964 73.16 91.526 C 73.81 90.095 74.136 88.444 74.136 86.575 C 74.136 84.364 73.797 82.497 73.12 80.976 C 72.451 79.455 71.344 78.097 69.804 76.905 C 68.257 75.705 66.139 74.519 63.45 73.346 C 56.669 70.658 51.095 67.967 46.731 65.271 C 42.367 62.577 39.143 59.428 37.061 55.824 C 34.973 52.22 33.927 47.701 33.927 42.267 C 33.927 34.886 36.425 28.815 41.422 24.057 C 46.419 19.3 53.087 16.532 61.43 15.751 L 61.43 2 L 71.854 2 L 71.854 16.07 C 79.675 17.243 85.876 20.46 90.46 25.72 C 95.043 30.975 97.267 37.685 97.132 45.854 L 97.335 46.376 L 74.716 46.376 C 74.716 41.728 73.837 38.285 72.076 36.049 C 70.323 33.812 68.034 32.693 65.211 32.693 C 62.297 32.693 60.144 33.605 58.751 35.43 C 57.365 37.254 56.672 39.619 56.672 42.527 C 56.672 44.442 56.988 46.106 57.619 47.517 C 58.245 48.929 59.34 50.222 60.907 51.395 C 62.467 52.568 64.617 53.761 67.357 54.973 C 74.049 57.887 79.587 60.734 83.97 63.512 C 88.36 66.29 91.63 69.472 93.776 73.056 C 95.929 76.641 97.006 81.104 97.006 86.449 C 97.006 93.966 94.618 100.026 89.841 104.629 C 85.057 109.232 78.649 111.947 70.617 112.771 L 70.617 126 Z" style="white-space: pre; fill: none; stroke: rgb(0, 98, 184); stroke-linejoin: round; stroke-width: 4px;"/>
</svg>