<?xml version="1.0" encoding="utf-8"?>
<svg viewBox="0 0 128 128" width="128" height="128" xmlns="http://www.w3.org/2000/svg">
  <path d="M 31.524 95.636 L 31.524 79.023 L 109.238 2 C 115.333 2 126 12.572 126 18.613 L 48.285 95.636 L 31.524 95.636 Z" style="stroke: rgb(0, 98, 184); fill: none; stroke-width: 4px; stroke-linejoin: round;"/>
  <line style="stroke: rgb(0, 98, 184); stroke-width: 4px;" x1="38.381" y1="82.044" x2="106.19" y2="14.837"/>
  <path d="M 99.333 11.817 C 106.952 11.817 116.095 22.389 116.095 28.43" style="fill: none; stroke: rgb(0, 98, 184); stroke-width: 4px; stroke-linecap: round;"/>
  <path d="M 31.524 79.023 C 39.142 79.023 48.285 89.595 48.285 95.636" style="fill: none; stroke: rgb(0, 98, 184); stroke-width: 4px; stroke-linecap: round;"/>
  <line style="stroke: rgb(0, 98, 184); stroke-width: 4px; fill: rgb(0, 98, 184);" x1="45.238" y1="88.085" x2="113.047" y2="20.878"/>
  <circle style="fill: rgb(0, 98, 184);" cx="26.237" cy="101.401" r="3.272" transform="matrix(0.931361, 0, 0, 0.923077, 8.611305, 0.524923)"/>
  <rect x="2" y="32" width="64" height="86" style="fill: none; stroke-width: 4px; stroke-linejoin: round;"/>
  <path d="M 0 18.012 C 0 16.907 0.895 16.012 2 16.012 L 8 16.012 L 8 10.012 C 8 8.907 8.895 8.012 10 8.012 L 16 8.012 L 16 2.012 C 16 0.907 16.895 0.012 18 0.012 L 94.485 0.012 C 95.59 0.012 96.485 0.907 96.485 2.012 L 96.485 9.008 L 92.485 12.972 L 92.485 4.012 L 20 4.012 L 20 8.012 L 86.485 8.012 C 87.59 8.012 88.485 8.907 88.485 10.012 L 88.485 16.936 L 84.485 20.901 L 84.485 12.012 L 12 12.012 L 12 16.012 L 78.485 16.012 C 79.59 16.012 80.485 16.907 80.485 18.012 L 80.485 24.865 L 76.485 28.83 L 76.485 20.012 L 4 20.012 L 4 124 L 76.485 124 L 76.485 73.319 L 80.485 69.355 L 80.485 116 L 84.485 116 L 84.485 65.39 L 88.485 61.426 L 88.485 108 L 92.485 108 L 92.485 57.462 L 96.485 53.497 L 96.485 110 C 96.485 111.105 95.59 112 94.485 112 L 88.485 112 L 88.485 118 C 88.485 119.105 87.59 120 86.485 120 L 80.485 120 L 80.485 126 C 80.485 127.105 79.59 128 78.485 128 L 2 128 C 0.895 128 0 127.105 0 126 Z" style="fill: rgb(0, 98, 184);"/>
  <path d="M 31.524 95.636 L 31.524 79.023 L 109.238 2 C 115.333 2 126 12.572 126 18.613 L 48.285 95.636 L 31.524 95.636 Z" style="fill: none; stroke-width: 4px; stroke-linejoin: round;"/>
</svg>