<?xml version="1.0" encoding="utf-8"?>
<svg viewBox="0 0 128 128" width="128px" height="128px" xmlns="http://www.w3.org/2000/svg" xmlns:bx="https://boxy-svg.com">
  <path style="stroke: rgb(0, 98, 184); fill: none; stroke-linejoin: round; stroke-width: 25.9767px;" transform="matrix(0, -0.153984, 0.153984, 0, -11.080325, 225.781638)" d="M 648 84.946 A 311.721 311.721 0 1 1 648 708.388 L 648 396.667 Z" bx:shape="pie 648 396.667 0 311.721 0 180 1@2dbd585a"/>
  <circle style="stroke: rgb(0, 98, 184); stroke-width: 4px; fill: none;" cx="50" cy="51.678" r="21.678"/>
  <path style="stroke: rgb(0, 98, 184); fill: none; stroke-linejoin: round; stroke-width: 51.9534px;" transform="matrix(0, -0.076992, 0.076992, 0, 71.459788, 99.890658)" d="M 648 84.946 A 311.721 311.721 0 1 1 648 708.388 L 648 396.667 Z" bx:shape="pie 648 396.667 0 311.721 0 180 1@2dbd585a"/>
  <circle style="stroke: rgb(0, 98, 184); stroke-width: 4px; fill: none;" cx="101.999" cy="12.839" r="10.839"/>
  <path d="M 29.848 9.874 C 49.058 -2.247 70.996 -2.684 89.253 5.189 C 88.594 6.319 88.038 7.563 87.643 8.844 C 47.723 -8.442 2.295 21.81 4.046 66.357 C 4.401 75.389 6.777 84.052 10.828 91.799 C 9.85 92.906 8.918 94.057 8.035 95.25 C 3.351 86.868 0.468 77.173 0.049 66.514 C -0.849 43.666 10.51 22.075 29.848 9.874 Z M 123.953 61.644 C 123.852 59.074 123.587 56.534 123.167 54.036 L 127.24 54.036 C 127.61 56.462 127.85 58.947 127.95 61.487 C 128.804 83.221 118.567 103.818 100.92 116.277 C 100.648 114.853 100.317 113.446 99.929 112.058 C 114.869 100.924 124.789 82.914 123.953 61.644 Z M 80.051 126.038 C 69.316 128.858 58.363 128.692 48.142 126.038 L 80.051 126.038 Z" style="fill: rgb(0, 98, 184);"/>
</svg>