<?xml version="1.0" encoding="utf-8"?>
<svg viewBox="0 0 128 128" width="128" height="128" xmlns="http://www.w3.org/2000/svg">
  <path d="M 49.796 11.011 L 77.172 11.011 L 83.674 7.257 C 77.542 5.139 70.94 4 64 4 C 56.817 4 49.997 5.22 43.684 7.483 L 49.796 11.011 Z M 110.006 34.117 L 118.466 60.153 L 123.99 65.127 C 123.997 64.752 124 64.377 124 64 C 124 50.029 119.384 37.432 111.462 27.268 L 110.006 34.117 Z M 106.637 98.52 L 84.49 114.611 L 81.438 121.465 C 90.981 118.592 99.465 113.388 106.426 106.426 C 109.092 103.761 111.499 100.872 113.618 97.786 L 106.637 98.52 Z M 44.345 115.217 L 22.197 99.127 L 14.771 98.346 C 16.794 101.222 19.07 103.922 21.574 106.426 C 28.693 113.545 37.404 118.827 47.212 121.657 L 44.345 115.217 Z M 9.242 61.151 L 17.702 35.114 L 16.144 27.78 C 8.463 37.854 4 50.263 4 64 C 4 64.618 4.009 65.234 4.027 65.847 L 9.242 61.151 Z M 86.837 28.863 L 76.774 15.011 L 50.813 15.011 L 40.745 28.869 L 52.47 45.006 L 75.108 45.008 L 86.837 28.863 Z M 85.554 68.714 L 104.474 74.861 L 114.539 61.01 L 106.516 36.32 L 90.212 31.023 L 78.532 47.1 L 85.554 68.714 Z M 66.177 85.967 L 66.178 105.849 L 82.461 111.141 L 103.463 95.882 L 103.463 78.739 L 84.574 72.601 L 66.177 85.967 Z M 43.833 72.843 L 24.872 79.003 L 24.87 96.125 L 45.873 111.384 L 62.177 106.086 L 62.177 86.17 L 43.833 72.843 Z M 49.391 47.573 L 37.667 31.439 L 21.384 36.728 L 13.361 61.419 L 23.424 75.268 L 42.396 69.103 L 49.391 47.573 Z M 128 64 C 128 81.529 120.727 97.783 109.255 109.255 C 97.783 120.727 81.529 128 64 128 C 46.471 128 30.217 120.727 18.745 109.255 C 7.273 97.783 0 81.529 0 64 C 0 46.471 7.273 30.217 18.745 18.745 C 30.217 7.273 46.471 0 64 0 C 81.529 0 97.783 7.273 109.255 18.745 C 120.727 30.217 128 46.471 128 64 Z" style="fill: rgb(0, 98, 184);"/>
</svg>