<?xml version="1.0" encoding="utf-8"?>
<svg viewBox="0 0 128 128" width="128" height="128" xmlns="http://www.w3.org/2000/svg">
  <rect x="2" y="38.5" width="80" height="45" style="stroke: rgb(0, 98, 184); fill: none; stroke-linejoin: round; stroke-width: 4px;"/>
  <rect x="94" y="30.5" width="32" height="64" style="stroke: rgb(0, 98, 184); fill: none; stroke-linejoin: round; stroke-width: 4px;"/>
  <path d="M 28.849 45 L 41.123 45 L 41.123 52.014 L 38.895 52.014 L 41.997 57.387 L 45.1 52.014 L 42.877 52.014 L 42.877 45 L 55.15 45 L 55.15 52.014 L 52.692 52.014 L 45.506 64.459 L 45.506 69.986 L 48.137 69.986 L 48.137 77 L 35.863 77 L 35.863 69.986 L 38.493 69.986 L 38.493 64.467 L 31.303 52.014 L 28.849 52.014 Z" style="fill: rgb(0, 98, 184);"/>
  <rect x="38" y="83.5" width="8" height="11" style="stroke: rgb(0, 98, 184); fill: none; stroke-linejoin: round; stroke-width: 4px;"/>
  <line style="stroke-width: 4px; stroke: rgb(0, 98, 184); stroke-linecap: round;" x1="30" y1="94.5" x2="54" y2="94.5"/>
  <line style="stroke-width: 4px; stroke: rgb(0, 98, 184); stroke-linecap: round;" x1="100" y1="48" x2="120" y2="48"/>
</svg>