<?xml version="1.0" encoding="utf-8"?>
<svg viewBox="0 0 128 128" width="128" height="128" xmlns="http://www.w3.org/2000/svg">
  <path d="M 80.36 34.146 C 79.384 37.982 77.115 42.073 73.634 46.199 C 70.159 50.317 65.819 53.948 60.756 57.001 C 55.686 60.046 50.934 61.887 46.243 62.722 C 42.452 67.809 39.738 71.37 38.057 73.467 L 37.207 74.453 C 44.523 76.582 50.125 79.452 54.722 83.802 C 57.103 86.133 58.49 89.13 58.728 92.463 C 58.835 94.153 58.731 95.69 58.43 96.926 C 58.11 98.173 57.545 99.347 56.842 100.239 C 56.127 101.095 55.292 101.793 54.497 102.147 C 53.776 102.469 53.107 102.684 52.7 102.684 C 52.429 102.684 51.932 102.53 51.709 102.299 C 51.457 102.039 51.346 101.417 51.42 101.123 C 51.511 100.754 52.02 99.959 52.788 98.89 C 53.483 97.924 53.962 96.873 54.28 95.551 C 54.619 94.236 54.696 92.849 54.525 91.221 C 54.4 89.673 53.808 88.386 52.621 87.077 C 51.441 85.728 49.677 84.508 47.179 83.282 C 44.648 82.039 42.466 81.175 40.539 80.659 C 38.586 80.131 36.225 79.596 33.116 78.962 C 28.298 83.879 23.743 87.282 19.248 89.221 C 16.54 90.4 14.119 91.034 12.18 91.034 C 10.251 91.034 8.487 90.59 7.123 89.812 C 5.945 89.126 4.977 88.15 4.526 87.077 C 4.075 86.007 4.023 84.613 4.36 83.262 C 5.029 80.58 7.481 78.141 11.264 76.214 C 15.551 74.036 20.952 72.904 27.24 72.904 C 29.503 72.904 31.125 73.049 32.756 73.328 C 35.064 70.709 37.658 67.469 40.944 63.064 C 40.952 63.053 40.961 63.041 40.969 63.03 C 38.666 62.903 36.526 62.426 34.673 61.642 C 32.48 60.674 30.729 59.269 29.639 57.614 C 28.272 55.41 27.873 52.757 28.51 50.043 C 28.871 48.627 29.629 47.039 30.713 45.441 C 31.852 43.8 33.874 42.089 36.614 40.462 C 39.372 38.852 42.711 37.6 46.479 36.767 C 47.107 36.633 47.695 36.554 48.14 36.554 C 48.422 36.554 48.807 36.624 49.041 36.743 C 49.34 36.895 49.705 37.379 49.758 37.721 C 49.817 38.102 49.549 38.704 49.283 38.933 C 49.085 39.105 48.756 39.271 48.457 39.382 C 47.937 39.571 47.279 39.731 46.652 39.828 C 44.867 40.018 43.192 40.577 41.444 41.559 C 38.397 43.22 36.024 45.719 34.135 49.239 C 33.687 50.038 33.4 50.741 33.23 51.459 C 33.043 52.176 32.968 52.989 32.99 54.04 C 32.994 55.01 33.293 55.903 33.923 56.979 C 34.509 57.979 35.316 58.598 36.738 58.996 C 38.243 59.449 39.511 59.654 40.69 59.654 C 41.923 59.654 42.716 59.611 43.639 59.521 L 52.239 46.223 C 58.467 36.499 64.68 30.367 70.606 28.035 C 72.188 27.461 73.763 27.144 75.16 27.144 C 76.633 27.144 78.113 27.689 79.213 28.636 C 80.363 29.627 80.866 31.146 80.676 32.601 C 80.586 33.131 80.477 33.662 80.36 34.146 Z M 75.719 33.724 C 75.905 33.064 75.882 32.895 75.751 32.701 C 75.635 32.53 75.612 32.534 75.05 32.534 C 73.137 32.534 70.363 34.225 66.387 37.961 C 63.224 40.957 60.027 44.554 56.742 48.814 C 53.439 53.103 51.687 55.434 49.471 58.427 C 54.662 56.867 58.864 54.682 64.819 49.565 C 70.785 44.474 74.365 39.282 75.719 33.724 Z M 28.373 78.105 C 27.008 77.888 26.255 77.784 24.09 77.784 C 21.937 77.784 19.698 78.084 17.247 78.713 C 12.141 79.946 9.109 81.537 7.863 83.705 C 7.62 84.067 7.483 84.343 7.422 84.638 C 7.297 85.044 7.323 85.231 7.447 85.527 C 7.576 85.833 7.726 86.026 8.151 86.296 C 9.046 86.928 10.012 87.174 11.33 87.174 C 13.221 87.174 15.339 86.674 17.88 85.593 C 21.743 83.945 24.79 81.652 28.373 78.105 Z M 118.977 38.841 C 119.349 37.584 119.111 36.608 118.172 35.483 C 116.893 33.76 114.81 33.044 111.527 33.044 C 108.594 33.044 105.232 33.675 101.297 34.985 C 99.277 35.638 97.518 36.505 95.876 37.659 C 93.326 39.451 91.964 41.044 91.597 42.726 C 91.297 43.819 91.396 44.67 91.844 45.647 C 92.303 46.647 93.057 47.525 94.323 48.454 C 95.291 49.151 97.328 50.294 100.505 51.925 C 103.726 53.584 106.093 54.955 107.542 56.003 C 109.772 57.634 111.289 59.541 111.905 61.459 C 112.446 63.326 112.525 65.209 112.137 66.846 C 111.559 69.107 110.204 71.491 108.18 73.792 C 104.646 77.828 100.028 81.353 94.462 84.259 C 88.011 87.63 80.729 89.364 72.847 89.364 C 65.217 89.364 59.394 87.277 55.741 83.351 C 52.934 80.213 52.04 76.02 53.177 71.231 C 53.956 68.202 55.914 64.798 58.946 61.225 C 62.008 57.654 65.456 55.02 69 53.502 C 69.793 53.227 70.6 53.135 71.119 53.235 C 71.269 53.295 71.569 53.455 71.698 53.615 C 71.847 53.801 71.957 54.241 71.928 54.452 C 71.893 54.715 71.681 55.065 71.527 55.234 C 71.291 55.494 70.833 55.857 70.289 56.238 C 68.145 57.654 66.374 59.168 64.876 60.867 C 61.615 64.534 59.515 68.401 58.467 72.677 C 57.755 75.421 57.893 77.613 58.922 79.599 C 60.629 83.259 64.732 85.186 71.588 85.649 C 72.341 85.727 73.484 85.764 75.067 85.764 C 76.604 85.764 78.756 85.491 81.623 84.923 C 84.458 84.365 87.239 83.452 90.079 82.146 C 96.195 79.315 100.481 75.745 103.139 71.264 C 103.96 69.96 104.485 68.78 104.777 67.581 C 105.505 64.928 104.965 62.848 103.049 60.85 C 102.006 59.817 99.653 58.435 95.824 56.596 C 91.932 54.729 89.27 53.244 87.956 52.22 C 85.071 49.788 83.911 46.651 84.647 43.321 C 85.405 40.486 87.721 37.617 91.393 35.005 C 96.659 31.346 103.366 29.444 111.227 29.444 C 114.949 29.444 118.007 30.061 120.163 31.205 C 122.36 32.472 123.61 34.582 123.656 37.021 C 123.631 37.498 123.553 38.023 123.437 38.498 C 122.929 40.347 121.57 42.142 119.602 43.566 C 118.241 44.463 116.484 45.216 114.497 45.752 C 114.01 45.872 113.468 45.932 113.114 45.857 C 112.877 45.807 112.497 45.601 112.327 45.398 C 112.151 45.186 112.049 44.682 112.032 44.427 C 112.157 43.898 112.562 43.246 113.052 42.977 C 113.469 42.748 114.108 42.588 114.769 42.511 C 116.655 42.34 117.785 41.578 118.541 39.971 C 118.764 39.55 118.897 39.203 118.977 38.841 Z" transform="matrix(1, 0, 0, 1.416941, 0.265625, -28.475751)" style="white-space: pre; fill: rgb(0, 98, 184);"/>
</svg>