<?xml version="1.0" encoding="utf-8"?>
<svg viewBox="0 0 128 128" width="128px" height="128px" xmlns="http://www.w3.org/2000/svg">
  <path d="M 81.63 15.83 C 80.585 21.774 78.154 28.112 74.426 34.506 C 70.705 40.886 66.056 46.512 60.634 51.242 C 55.204 55.961 50.115 58.813 45.09 60.108 C 41.03 67.99 38.124 73.506 36.323 76.756 L 35.413 78.284 C 43.248 81.582 49.248 86.029 54.171 92.77 C 56.722 96.382 58.207 101.025 58.462 106.19 C 58.577 108.807 58.465 111.189 58.143 113.105 C 57.8 115.037 57.195 116.856 56.442 118.238 C 55.676 119.564 54.782 120.646 53.931 121.195 C 53.158 121.693 52.442 122.026 52.006 122.026 C 51.716 122.026 51.183 121.787 50.945 121.43 C 50.675 121.026 50.556 120.063 50.635 119.608 C 50.733 119.036 51.278 117.804 52.1 116.148 C 52.845 114.651 53.358 113.023 53.698 110.974 C 54.061 108.936 54.144 106.788 53.961 104.265 C 53.827 101.867 53.193 99.872 51.921 97.844 C 50.658 95.754 48.768 93.863 46.093 91.964 C 43.382 90.038 41.045 88.699 38.981 87.899 C 36.89 87.081 34.361 86.253 31.031 85.271 C 25.871 92.889 20.993 98.162 16.179 101.166 C 13.278 102.993 10.686 103.975 8.609 103.975 C 6.543 103.975 4.654 103.287 3.193 102.082 C 1.931 101.019 0.894 99.507 0.411 97.844 C -0.072 96.186 -0.127 94.026 0.234 91.933 C 0.95 87.777 3.576 83.998 7.628 81.012 C 12.219 77.638 18.004 75.884 24.738 75.884 C 27.162 75.884 28.899 76.108 30.646 76.541 C 33.118 72.483 35.896 67.463 39.415 60.637 C 39.424 60.62 39.433 60.602 39.442 60.584 C 36.975 60.388 34.684 59.648 32.699 58.433 C 30.35 56.934 28.475 54.757 27.308 52.193 C 25.843 48.778 25.416 44.667 26.098 40.461 C 26.485 38.268 27.297 35.807 28.458 33.331 C 29.678 30.788 31.843 28.137 34.778 25.617 C 37.732 23.122 41.308 21.182 45.343 19.891 C 46.016 19.683 46.646 19.561 47.122 19.561 C 47.424 19.561 47.837 19.669 48.087 19.854 C 48.407 20.089 48.798 20.839 48.855 21.37 C 48.918 21.96 48.631 22.893 48.346 23.247 C 48.134 23.514 47.782 23.771 47.462 23.943 C 46.905 24.236 46.2 24.484 45.528 24.634 C 43.617 24.928 41.823 25.794 39.951 27.316 C 36.687 29.889 34.146 33.761 32.123 39.216 C 31.643 40.454 31.336 41.543 31.153 42.656 C 30.953 43.767 30.873 45.027 30.896 46.655 C 30.901 48.158 31.221 49.542 31.896 51.209 C 32.523 52.758 33.388 53.717 34.911 54.334 C 36.522 55.036 37.88 55.353 39.143 55.353 C 40.464 55.353 41.313 55.287 42.302 55.147 L 51.512 34.543 C 58.182 19.476 64.837 9.974 71.183 6.361 C 72.878 5.472 74.564 4.981 76.061 4.981 C 77.638 4.981 79.223 5.825 80.401 7.293 C 81.633 8.828 82.172 11.181 81.968 13.436 C 81.872 14.257 81.755 15.08 81.63 15.83 Z M 76.659 15.176 C 76.859 14.154 76.834 13.892 76.694 13.591 C 76.569 13.326 76.545 13.332 75.943 13.332 C 73.894 13.332 70.923 15.952 66.665 21.741 C 63.277 26.383 59.853 31.957 56.335 38.558 C 52.797 45.203 50.921 48.815 48.548 53.452 C 54.107 51.035 58.608 47.649 64.985 39.721 C 71.375 31.832 75.209 23.789 76.659 15.176 Z M 25.952 83.942 C 24.49 83.606 23.683 83.445 21.365 83.445 C 19.059 83.445 16.661 83.91 14.036 84.885 C 8.567 86.795 5.32 89.26 3.985 92.619 C 3.725 93.18 3.578 93.608 3.513 94.065 C 3.379 94.694 3.407 94.984 3.54 95.442 C 3.678 95.917 3.839 96.216 4.294 96.634 C 5.252 97.613 6.287 97.995 7.699 97.995 C 9.724 97.995 11.992 97.219 14.714 95.544 C 18.851 92.991 22.114 89.438 25.952 83.942 Z M 122.989 23.105 C 123.387 21.158 123.132 19.645 122.127 17.902 C 120.757 15.232 118.526 14.123 115.01 14.123 C 111.869 14.123 108.268 15.101 104.053 17.13 C 101.89 18.142 100.006 19.486 98.248 21.273 C 95.516 24.05 94.058 26.518 93.665 29.124 C 93.343 30.818 93.449 32.136 93.929 33.65 C 94.421 35.199 95.228 36.56 96.584 38 C 97.621 39.079 99.803 40.851 103.205 43.378 C 106.655 45.949 109.19 48.072 110.742 49.696 C 113.13 52.223 114.755 55.178 115.415 58.15 C 115.994 61.043 116.079 63.961 115.663 66.497 C 115.044 70.001 113.593 73.695 111.425 77.259 C 107.64 83.513 102.694 88.975 96.733 93.477 C 89.824 98.701 82.025 101.388 73.583 101.388 C 65.412 101.388 59.175 98.154 55.263 92.071 C 52.257 87.208 51.299 80.712 52.517 73.291 C 53.351 68.598 55.448 63.324 58.695 57.787 C 61.975 52.255 65.668 48.173 69.463 45.821 C 70.313 45.395 71.177 45.252 71.733 45.407 C 71.893 45.5 72.215 45.749 72.353 45.997 C 72.512 46.284 72.63 46.967 72.599 47.294 C 72.562 47.701 72.335 48.243 72.17 48.505 C 71.917 48.908 71.426 49.47 70.844 50.06 C 68.548 52.255 66.651 54.601 65.046 57.233 C 61.554 62.915 59.305 68.906 58.182 75.532 C 57.42 79.783 57.568 83.18 58.67 86.257 C 60.498 91.928 64.892 94.914 72.235 95.632 C 73.041 95.752 74.266 95.81 75.961 95.81 C 77.607 95.81 79.912 95.387 82.983 94.506 C 86.019 93.641 88.997 92.228 92.039 90.203 C 98.589 85.817 103.18 80.285 106.026 73.342 C 106.906 71.322 107.468 69.493 107.781 67.636 C 108.56 63.525 107.982 60.302 105.93 57.206 C 104.813 55.606 102.293 53.464 98.192 50.615 C 94.024 47.722 91.172 45.422 89.765 43.835 C 86.675 40.067 85.433 35.206 86.221 30.047 C 87.033 25.654 89.514 21.208 93.446 17.161 C 99.086 11.492 106.269 8.545 114.689 8.545 C 118.675 8.545 121.95 9.501 124.259 11.273 C 126.612 13.236 127.951 16.506 128 20.285 C 127.973 21.024 127.89 21.838 127.765 22.574 C 127.221 25.439 125.766 28.219 123.658 30.426 C 122.201 31.816 120.319 32.983 118.191 33.813 C 117.669 33.999 117.089 34.092 116.709 33.976 C 116.456 33.898 116.049 33.579 115.867 33.265 C 115.678 32.936 115.569 32.155 115.551 31.76 C 115.685 30.94 116.118 29.93 116.643 29.513 C 117.09 29.159 117.774 28.911 118.482 28.791 C 120.502 28.527 121.712 27.346 122.522 24.856 C 122.761 24.203 122.903 23.666 122.989 23.105 Z" style="white-space: pre; fill: rgb(0, 98, 184);"/>
</svg>