<?xml version="1.0" encoding="utf-8"?>
<svg viewBox="0 0 128 128" width="128" height="128" xmlns="http://www.w3.org/2000/svg">
  <rect x="96" y="41" width="24" height="46" style="stroke-linejoin: bevel; fill: none; stroke-width: 16px;"/>
  <path d="M 96 95 L 88 87 L 88 82.593 L 101.21 95 Z M 88 41 L 96 33 L 120 33 L 128 41 L 128 56 L 112 56 L 112 49 L 104 49 L 104 79 L 112 79 L 112 72 L 128 72 L 128 87 L 120 95 L 107.944 95 L 88 79.833 L 88 43.1 L 97.112 45.015 L 88 42.599 Z" style="fill: rgb(0, 98, 184);"/>
  <path d="M 87.5 87.207 L 87.5 40.793 L 95.793 32.5 L 120.207 32.5 L 128.5 40.793 L 128.5 56.5 L 111.5 56.5 L 111.5 49.5 L 104.5 49.5 L 104.5 78.5 L 111.5 78.5 L 111.5 71.5 L 128.5 71.5 L 128.5 87.207 L 120.207 95.5 L 95.793 95.5 Z M 119.793 94.5 L 127.5 86.793 L 127.5 72.5 L 112.5 72.5 L 112.5 79.5 L 103.5 79.5 L 103.5 48.5 L 112.5 48.5 L 112.5 55.5 L 127.5 55.5 L 127.5 41.207 L 119.793 33.5 L 96.207 33.5 L 88.5 41.207 L 88.5 86.793 L 96.207 94.5 Z" style="fill: none;"/>
  <path d="M 52 95 L 44 87 L 44 41 L 49.952 35.048 L 84 42.203 L 84 76.389 L 70.888 66.418 L 84 78.734 L 84 87 L 76 95 Z M 76 33 L 84 41 L 84 41.408 L 52.29 33 Z M 60 79 L 68 79 L 68 49 L 60 49 Z" style="fill: rgb(0, 98, 184);"/>
  <path d="M 43.5 87.207 L 43.5 40.793 L 51.793 32.5 L 76.207 32.5 L 84.5 40.793 L 84.5 87.207 L 76.207 95.5 L 51.793 95.5 Z M 75.793 94.5 L 83.5 86.793 L 83.5 41.207 L 75.793 33.5 L 52.207 33.5 L 44.5 41.207 L 44.5 86.793 L 52.207 94.5 Z M 68.5 48.5 L 68.5 79.5 L 59.5 79.5 L 59.5 48.5 Z M 60.5 78.5 L 67.5 78.5 L 67.5 49.5 L 60.5 49.5 Z" style="fill: none;"/>
  <path d="M 0 33 L 32 33 L 40 41 L 40 62.125 L 33 70 L 36 79 L 40 79 L 40 95 L 24 95 L 21.952 88.514 L 30.585 76.349 L 21.119 85.878 L 18 76 L 16 76 L 16 91.032 L 12.059 95 L 0 95 Z M 24 49 L 16 49 L 16 60 L 24 60 Z" style="fill: rgb(0, 98, 184);"/>
  <path d="M 32.207 32.5 L 40.5 40.793 L 40.5 62.315 L 33.566 70.116 L 36.36 78.5 L 40.5 78.5 L 40.5 95.5 L 23.634 95.5 L 17.634 76.5 L 16.5 76.5 L 16.5 95.5 L -0.5 95.5 L -0.5 32.5 Z M 0.5 94.5 L 15.5 94.5 L 15.5 75.5 L 18.366 75.5 L 24.366 94.5 L 39.5 94.5 L 39.5 79.5 L 35.64 79.5 L 32.434 69.884 L 39.5 61.935 L 39.5 41.207 L 31.793 33.5 L 0.5 33.5 Z M 15.5 60.5 L 15.5 48.5 L 24.5 48.5 L 24.5 60.5 Z M 23.5 49.5 L 16.5 49.5 L 16.5 59.5 L 23.5 59.5 Z" style="fill: none;"/>
</svg>