<?xml version="1.0" encoding="utf-8"?>
<svg viewBox="0 0 128 128" width="128" height="128" xmlns="http://www.w3.org/2000/svg">
  <rect x="88.273" y="32.48" width="22.068" height="36.44" style="stroke-linejoin: bevel; fill: none; stroke-width: 16px;" transform="matrix(1, 0, -0.216502, 1, 16.838812, 13.300336)"/>
  <path d="M 88.82 88.558 L 82.835 82.221 L 83.59 78.73 L 93.609 88.558 Z M 90.724 45.781 L 99.451 39.442 L 121.519 39.442 L 127.505 45.781 L 124.932 57.663 L 110.219 57.663 L 111.42 52.117 L 104.063 52.117 L 98.919 75.883 L 106.275 75.883 L 107.475 70.339 L 122.186 70.339 L 119.615 82.221 L 110.887 88.558 L 99.801 88.558 L 84.063 76.543 L 90.363 47.444 L 98.414 48.961 L 90.449 47.047 Z" style="fill: rgb(0, 98, 184);"/>
  <path d="M 82.339 82.385 L 90.3 45.617 L 99.347 39.047 L 121.796 39.047 L 128 45.617 L 125.305 58.059 L 109.674 58.059 L 110.874 52.515 L 104.438 52.515 L 99.463 75.487 L 105.9 75.487 L 107.101 69.941 L 122.733 69.941 L 120.038 82.385 L 110.992 88.954 L 88.542 88.954 Z M 110.783 88.162 L 119.19 82.057 L 121.642 70.734 L 107.85 70.734 L 106.649 76.28 L 98.373 76.28 L 103.69 51.722 L 111.967 51.722 L 110.765 57.267 L 124.557 57.267 L 127.009 45.945 L 121.245 39.839 L 99.557 39.839 L 91.149 45.945 L 83.329 82.057 L 89.095 88.162 Z" style="fill: none;"/>
  <path d="M 48.36 88.558 L 42.376 82.221 L 50.265 45.781 L 56.758 41.066 L 86.84 46.733 L 80.977 73.815 L 70.629 65.916 L 80.575 75.672 L 79.156 82.221 L 70.429 88.558 Z M 81.061 39.442 L 87.046 45.781 L 86.976 46.104 L 59.26 39.442 Z M 58.461 75.883 L 65.817 75.883 L 70.961 52.117 L 63.605 52.117 Z" style="fill: rgb(0, 98, 184);"/>
  <path d="M 41.879 82.385 L 49.842 45.617 L 58.889 39.047 L 81.338 39.047 L 87.541 45.617 L 79.58 82.385 L 70.533 88.954 L 48.084 88.954 Z M 70.324 88.162 L 78.732 82.057 L 86.551 45.945 L 80.786 39.839 L 59.098 39.839 L 50.691 45.945 L 42.87 82.057 L 48.637 88.162 Z M 71.507 51.722 L 66.19 76.28 L 57.915 76.28 L 63.232 51.722 Z M 59.006 75.487 L 65.442 75.487 L 70.416 52.515 L 63.979 52.515 Z" style="fill: none;"/>
  <path d="M 11.178 39.442 L 40.603 39.442 L 46.588 45.781 L 42.965 62.515 L 35.177 68.753 L 36.392 75.883 L 40.07 75.883 L 37.327 88.558 L 22.614 88.558 L 21.843 83.42 L 31.868 73.784 L 21.529 81.332 L 20.356 73.506 L 18.517 73.506 L 15.939 85.415 L 11.634 88.558 L 0.547 88.558 Z M 30.502 52.117 L 23.147 52.117 L 21.26 60.832 L 28.616 60.832 Z" style="fill: rgb(0, 98, 184);"/>
  <path d="M 40.88 39.047 L 47.084 45.617 L 43.391 62.666 L 35.678 68.846 L 36.809 75.487 L 40.615 75.487 L 37.7 88.954 L 22.191 88.954 L 19.933 73.903 L 18.89 73.903 L 15.633 88.954 L 0 88.954 L 10.805 39.047 Z M 1.09 88.162 L 14.883 88.162 L 18.142 73.11 L 20.779 73.11 L 23.036 88.162 L 36.952 88.162 L 39.524 76.28 L 35.975 76.28 L 34.677 68.662 L 42.538 62.365 L 46.093 45.945 L 40.326 39.839 L 11.553 39.839 Z M 20.714 61.228 L 22.773 51.722 L 31.048 51.722 L 28.991 61.228 Z M 29.958 52.515 L 23.521 52.515 L 21.805 60.436 L 28.242 60.436 Z" style="fill: none;"/>
</svg>