<?xml version="1.0" encoding="utf-8"?>
<svg viewBox="0 0 128 128" width="128" height="128" xmlns="http://www.w3.org/2000/svg">
  <path d="M 72.338 2.685 C 76.081 7.692 81.364 10.419 82.211 13.647 C 83.574 18.841 82.703 28.406 79.673 32.866 C 76.793 37.105 70.403 40.463 69.442 44.006 C 68.817 46.312 72.639 49.958 73.15 52.292 C 73.364 53.266 72.357 54.542 70.236 54.399 C 66.897 54.173 62.944 49.025 59.825 50.24 C 54.696 52.237 47.752 57.277 49.301 64.749 C 49.989 68.069 52.443 71.631 56.212 71.525 C 58.26 71.467 58.999 68.387 61.032 68.642 C 62.429 68.817 63.228 69.216 63.677 70.238 C 64.621 72.389 61.146 75.29 63.052 76.664 C 64.862 77.969 68.41 76.013 69.784 77.771 C 72.338 81.037 70.704 85.905 73.21 85.674 C 78.411 85.195 79.489 84.956 83.992 84.263 C 94.016 82.721 104.684 93.146 113.582 97.95 C 116.195 99.361 119.931 107.272 118.06 109.577 C 109.362 120.291 96.13 126.653 82.904 129.61 C 82.182 129.771 64.398 135.025 64.317 134.574 C 63.803 131.69 68.316 120.983 67.788 118.102 C 67.032 113.98 61.933 114.346 59.616 110.127 C 57.565 106.393 57.168 98.897 59.464 94.833 C 62.585 89.309 63.497 89.362 67.04 86.643 C 67.768 86.084 68.097 82.431 66.155 81.597 C 63.912 80.633 62.158 82.111 60.01 80.951 C 57.251 79.461 54.93 76.901 52.161 75.438 C 47.972 73.225 48.459 71.771 40.764 69.357 C 26.404 64.852 25.763 60.289 21.899 50.757 C 18.904 43.369 22.342 36.83 18.931 32.001 C 17.263 29.64 16.061 28.199 15.549 25.537" style="fill: none; stroke-width: 4px;"/>
  <path d="M 84.146 13.139 C 85.537 18.678 84.526 29.059 81.327 33.99 C 78.085 38.552 71.834 41.61 71.372 44.529 C 70.472 45.85 74.305 49.02 75.103 51.863 C 75.177 52.897 74.742 54.531 73.875 55.279 C 73.115 55.934 71.569 56.408 70.101 56.394 C 67.906 56.089 65.605 54.588 63.86 53.458 C 62.121 52.331 61.261 51.438 60.551 52.104 C 58.127 53.034 55.528 54.561 53.55 56.774 C 51.578 58.982 50.424 61.206 51.259 64.343 C 51.534 65.791 52.116 67.011 53.083 68.079 C 54.038 69.133 54.785 69.704 56.155 69.526 C 56.46 69.832 56.453 69.365 57.165 68.602 C 57.877 67.838 59.426 66.822 61.281 66.658 C 63 66.93 64.591 67.92 65.508 69.434 C 65.959 71.36 65.327 73.427 64.835 74.547 C 64.687 74.882 64.592 75.104 64.536 75.273 C 64.885 75.324 65.493 75.131 66.417 75.054 C 67.744 74.945 69.845 75.277 71.36 76.539 C 72.842 78.676 73.275 81.186 73.496 82.756 C 73.549 83.137 73.59 83.416 73.629 83.627 C 78.192 83.203 79.307 82.962 83.688 82.286 C 94.563 81.017 105.858 91.551 114.532 96.19 C 114.579 96.219 114.627 96.25 114.675 96.282 C 120.525 87.148 124 76.176 124 64 C 124 42.564 112.564 22.756 94 12.038 C 88.632 8.939 83.084 6.775 77.501 5.464 C 80.32 8.181 83.209 10.471 84.146 13.139 Z M 63.606 128.094 C 30.368 127.833 0 101.176 0 64 C 0 41.135 12.198 20.007 32 8.574 C 74.667 -16.059 128 14.733 128 64 C 128 76.739 124.214 88.938 117.436 99.223 C 116.32 100.874 116.21 100.92 114.971 102.704 C 109.903 109.38 103.497 115.098 96 119.426 C 86.786 124.746 77.074 127.48 67.51 128.003 C 66.166 128.069 65.359 128.114 63.606 128.094 Z M 65.821 118.463 C 65.886 117.063 64.908 116.812 63.293 115.886 C 61.67 114.955 59.437 113.605 57.863 111.09 C 55.69 106.927 55.299 98.458 57.723 93.849 C 59.349 90.986 60.526 89.377 61.71 88.242 C 62.912 87.09 64.107 86.374 65.742 85.119 C 65.691 85.017 65.63 84.768 65.603 84.351 C 65.577 83.953 65.544 83.792 65.421 83.543 C 65.394 83.489 65.385 83.452 65.384 83.428 C 65.378 83.43 65.372 83.433 65.365 83.435 C 64.766 83.026 64.267 83.23 63.256 83.337 C 62.246 83.443 60.69 83.408 59.06 82.711 C 56.035 81.013 53.722 78.457 51.227 77.206 C 48.896 75.926 47.86 74.961 46.641 74.119 C 45.369 73.24 43.839 72.399 40.165 71.265 C 32.767 68.914 28.511 66.372 25.866 63.23 C 23.182 60.044 21.952 56.203 20.046 51.508 C 18.475 47.407 18.513 43.531 18.571 40.382 C 18.63 37.237 18.82 34.99 17.297 33.155 C 16.509 32.037 15.688 30.477 15.052 29.17 C 8.165 38.782 4 50.67 4 64 C 4 85.436 15.436 105.244 34 115.962 C 43.948 121.705 54.514 124.235 64.775 124.084 C 65.503 121.551 66.052 119.366 65.821 118.463 Z M 17.925 26.618 C 18.102 27.078 18.282 27.44 18.537 27.879 C 19.049 28.762 19.712 29.641 20.565 30.847 C 22.453 33.841 22.63 37.278 22.571 40.457 C 22.512 43.632 22.328 46.719 23.753 50.006 C 25.71 54.843 26.732 58.05 28.925 60.654 C 31.157 63.303 34.401 65.295 41.363 67.449 C 45.384 68.729 47.458 69.822 48.914 70.827 C 50.422 71.869 51.237 72.737 53.095 73.67 C 56.138 75.345 58.467 77.909 60.96 79.191 C 61.478 79.654 61.874 79.46 62.837 79.359 C 63.802 79.257 65.301 79.204 66.944 79.759 C 67.781 80.221 68.66 81.066 69.009 81.775 C 69.348 82.462 69.551 83.406 69.595 84.096 C 69.684 85.487 68.983 87.4 68.258 88.229 C 66.391 89.654 65.378 90.267 64.478 91.13 C 63.54 92.029 62.7 93.156 61.205 95.817 C 59.037 99.336 59.44 105.859 61.369 109.164 C 62.112 110.868 63.587 111.444 65.282 112.416 C 66.984 113.392 68.934 115.019 69.755 117.741 C 69.931 119.041 69.4 121.371 68.7 123.895 C 86.007 122.484 102.091 113.504 112.4 99.583 C 103.34 94.567 93.391 84.44 84.296 86.24 C 79.858 86.921 78.719 87.167 73.394 87.666 C 72.788 87.678 71.915 87.541 71.436 87.26 C 70.94 86.969 70.409 86.331 70.19 85.895 C 69.815 85.15 69.649 84.129 69.534 83.312 C 69.307 81.689 69.28 80.132 68.209 79.003 C 68.35 78.507 67.989 78.938 66.746 79.041 C 65.5 79.144 63.493 79.12 61.882 78.286 C 61.038 77.436 60.41 76.093 60.486 75.211 C 60.554 74.419 60.905 73.547 61.173 72.938 C 61.706 71.726 62.339 71.268 61.846 71.042 C 61.866 70.513 61.858 70.704 60.783 70.627 C 60.605 70.207 60.768 70.603 60.091 71.33 C 59.412 72.058 58.012 73.16 56.269 73.524 C 53.871 73.452 51.506 72.295 50.119 70.765 C 48.745 69.248 47.756 67.027 47.343 65.155 C 46.629 60.82 48.173 56.789 50.567 54.109 C 52.957 51.435 56.394 49.443 59.099 48.376 C 61.508 47.827 64.184 48.901 66.036 50.101 C 67.882 51.297 69.227 52.483 70.371 52.404 C 70.859 52.5 70.992 52.473 71.121 52.373 C 70.535 50.411 67.182 46.579 67.512 43.483 C 68.973 39.316 75.501 35.658 78.019 31.742 C 80.88 27.753 81.611 19.004 80.277 14.155 C 79.948 11.635 75.109 9.315 71.088 4.329 C 50.642 1.871 30.468 10.389 17.668 25.783 C 17.757 26.107 17.853 26.432 17.925 26.618 Z" style="fill: rgb(0, 98, 184);"/>
</svg>