<?xml version="1.0" encoding="utf-8"?>
<svg viewBox="0 0 128 128" width="128" height="128" xmlns="http://www.w3.org/2000/svg">
  <defs>
    <linearGradient id="color-0">
      <stop style="stop-color: rgb(0, 98, 184)"/>
    </linearGradient>
  </defs>
  <path d="M 41 24.016 L 62.467 24.016 L 62.467 36.283 L 58.571 36.283 L 63.996 45.68 L 69.422 36.283 L 65.533 36.283 L 65.533 24.016 L 87 24.016 L 87 36.283 L 82.701 36.283 L 70.133 58.05 L 70.133 67.716 L 74.733 67.716 L 74.733 79.983 L 53.267 79.983 L 53.267 67.716 L 57.867 67.716 L 57.867 58.063 L 45.291 36.283 L 41 36.283 Z" style="fill: rgb(0, 98, 184);"/>
  <path d="M 2 8 L 126 8 C 127.105 8 128 8.895 128 10 L 128 120 C 128 121.105 127.105 122 126 122 C 125.381 122 124.828 121.719 124.461 121.278 L 124.455 121.284 L 99.171 96 L 2 96 C 0.895 96 0 95.105 0 94 L 0 10 C 0 8.895 0.895 8 2 8 Z M 124 115.171 L 124 12 L 4 12 L 4 92 L 100.829 92 L 124 115.171 Z" style="stroke-width: 4px; stroke-linejoin: round; fill: url(#color-0);"/>
  <path d="M 41 24 L 62.467 24 L 62.467 36.267 L 58.571 36.267 L 63.996 45.664 L 69.422 36.267 L 65.533 36.267 L 65.533 24 L 87 24 L 87 36.267 L 82.701 36.267 L 70.133 58.034 L 70.133 67.7 L 74.733 67.7 L 74.733 79.967 L 53.267 79.967 L 53.267 67.7 L 57.867 67.7 L 57.867 58.047 L 45.291 36.267 L 41 36.267 Z" style="fill: rgb(0, 98, 184);"/>
  <path d="M 15.965 28 C 14.86 28 13.965 27.105 13.965 26 C 13.965 24.895 14.86 24 15.965 24 C 15.968 24 15.972 24 15.975 24 C 15.977 24 24.754 24 37 24 L 37 28 C 24.748 28 15.966 28 15.965 28 Z M 112 24 C 113.105 24 114 24.895 114 26 C 114 27.105 113.105 28 112 28 C 111.992 28 111.983 28 111.975 28 C 111.974 28 103.221 28 91 28 L 91 24 C 103.233 24 111.998 24 112 24 Z" style="fill: url(#color-0);"/>
  <path d="M 16 45.333 C 14.895 45.333 14 44.438 14 43.333 C 14 42.228 14.895 41.333 16 41.333 C 16.003 41.333 16.007 41.333 16.01 41.333 C 16.013 41.333 28.348 41.333 44.176 41.333 L 46.485 45.333 C 29.559 45.333 16.001 45.333 16 45.333 Z M 112.035 41.333 C 113.14 41.333 114.035 42.228 114.035 43.333 C 114.035 44.438 113.14 45.333 112.035 45.333 C 112.027 45.333 112.018 45.333 112.01 45.333 C 112.009 45.333 98.441 45.333 81.507 45.333 L 83.816 41.333 C 99.669 41.333 112.032 41.333 112.035 41.333 Z" style="fill: url(#color-0);"/>
  <path d="M 16 62.666 C 14.895 62.666 14 61.771 14 60.666 C 14 59.561 14.895 58.666 16 58.666 C 16.003 58.666 16.007 58.666 16.01 58.666 C 16.013 58.666 33.686 58.666 53.867 58.666 L 53.867 62.666 C 33.681 62.666 16.001 62.666 16 62.666 Z M 112.035 58.666 C 113.14 58.666 114.035 59.561 114.035 60.666 C 114.035 61.771 113.14 62.666 112.035 62.666 C 112.027 62.666 112.018 62.666 112.01 62.666 C 112.009 62.666 94.323 62.666 74.133 62.666 L 74.133 58.666 C 94.333 58.666 112.032 58.666 112.035 58.666 Z" style="fill: url(#color-0);"/>
  <path d="M 16 80 C 14.895 80 14 79.105 14 78 C 14 76.895 14.895 76 16 76 C 16.003 76 16.007 76 16.01 76 C 16.013 76 31.075 76 49.267 76 L 49.267 80 C 31.07 80 16.001 80 16 80 Z M 112.035 76 C 113.14 76 114.035 76.895 114.035 78 C 114.035 79.105 113.14 80 112.035 80 C 112.027 80 112.018 80 112.01 80 C 112.009 80 96.935 80 78.733 80 L 78.733 76 C 96.945 76 112.032 76 112.035 76 Z" style="fill: url(#color-0);"/>
</svg>