<?xml version="1.0" encoding="utf-8"?>
<svg viewBox="0 0 128 128" width="128" height="128" xmlns="http://www.w3.org/2000/svg">
  <path d="M 128 64 C 128 99.346 99.346 128 64 128 C 28.654 128 0 99.346 0 64 C 0 28.654 28.654 0 64 0 C 99.346 0 128 28.654 128 64 Z M 62 123.967 L 62 112 C 62 110.895 62.895 110 64 110 C 65.105 110 66 110.895 66 112 L 66 123.967 C 75.323 123.662 84.108 121.23 91.885 117.14 L 89.697 113.35 C 89.145 112.393 89.473 111.17 90.429 110.618 C 91.386 110.065 92.609 110.393 93.161 111.35 L 95.361 115.161 C 103.655 110.066 110.615 103.012 115.596 94.642 L 111.965 92.546 C 111.009 91.994 110.681 90.77 111.233 89.814 C 111.785 88.857 113.009 88.529 113.965 89.082 L 117.526 91.138 C 121.383 83.547 123.672 75.026 123.967 66 L 112 66 C 110.895 66 110 65.105 110 64 C 110 62.895 110.895 62 112 62 L 123.967 62 C 123.666 52.794 121.29 44.113 117.293 36.408 L 113.732 38.464 C 112.775 39.016 111.552 38.689 111 37.732 C 110.448 36.775 110.775 35.552 111.732 35 L 115.333 32.921 C 110.378 24.752 103.527 17.861 95.392 12.857 L 93.464 16.196 C 92.912 17.153 91.689 17.48 90.732 16.928 C 89.775 16.376 89.448 15.153 90 14.196 L 91.917 10.877 C 84.131 6.777 75.335 4.339 66 4.033 L 66 16 C 66 17.105 65.105 18 64 18 C 62.895 18 62 17.105 62 16 L 62 4.033 C 52.807 4.334 44.137 6.703 36.44 10.69 L 38.464 14.196 C 39.016 15.153 38.689 16.376 37.732 16.928 C 36.775 17.48 35.552 17.153 35 16.196 L 32.952 12.648 C 24.656 17.675 17.675 24.655 12.648 32.952 L 16.196 35 C 17.153 35.552 17.48 36.775 16.928 37.732 C 16.376 38.689 15.153 39.016 14.196 38.464 L 10.691 36.44 C 6.703 44.137 4.334 52.807 4.033 62 L 16 62 C 17.105 62 18 62.895 18 64 C 18 65.105 17.105 66 16 66 L 4.033 66 C 4.331 75.095 6.653 83.679 10.564 91.314 L 14.429 89.082 C 15.386 88.529 16.609 88.857 17.161 89.814 C 17.714 90.77 17.386 91.994 16.429 92.546 L 12.505 94.811 C 17.458 103.072 24.343 110.042 32.534 115.097 L 34.697 111.35 C 35.249 110.393 36.473 110.065 37.429 110.618 C 38.386 111.17 38.714 112.393 38.161 113.35 L 36.006 117.083 C 43.81 121.207 52.634 123.66 62 123.967 Z" style="fill: rgb(0, 98, 184);"/>
  <path d="M 34 28 L 62 28 L 62 44 L 56.918 44 L 63.995 56.257 L 71.072 44 L 66 44 L 66 28 L 94 28 L 94 44 L 88.392 44 L 72 72.392 L 72 85 L 78 85 L 78 101 L 50 101 L 50 85 L 56 85 L 56 72.409 L 39.598 44 L 34 44 Z" style="fill: rgb(0, 98, 184);"/>
</svg>